<?xml version="1.0" encoding="UTF-8"?>
<!DOCTYPE svg PUBLIC "-//W3C//DTD SVG 1.1//EN" "http://www.w3.org/Graphics/SVG/1.1/DTD/svg11.dtd">
<!-- Creator: CorelDRAW 2017 -->
<svg xmlns="http://www.w3.org/2000/svg" xml:space="preserve" width="3.83244in" height="7.16497in" version="1.1" style="shape-rendering:geometricPrecision; text-rendering:geometricPrecision; image-rendering:optimizeQuality; fill-rule:evenodd; clip-rule:evenodd"
viewBox="0 0 2915 5450"
 xmlns:xlink="http://www.w3.org/1999/xlink">
 <defs>
  <style type="text/css">
   <![CDATA[
    .fil0 {fill:none}
    .fil6 {fill:#FEFEFE}
    .fil48 {fill:black}
    .fil4 {fill:#FEFEFE;fill-rule:nonzero}
    .fil31 {fill:url(#id0)}
    .fil3 {fill:url(#id1)}
    .fil46 {fill:url(#id2)}
    .fil36 {fill:url(#id3)}
    .fil19 {fill:url(#id4)}
    .fil17 {fill:url(#id5)}
    .fil16 {fill:url(#id6)}
    .fil26 {fill:url(#id7)}
    .fil27 {fill:url(#id8)}
    .fil14 {fill:url(#id9)}
    .fil20 {fill:url(#id10)}
    .fil18 {fill:url(#id11)}
    .fil42 {fill:url(#id12)}
    .fil55 {fill:url(#id13)}
    .fil29 {fill:url(#id14)}
    .fil8 {fill:url(#id15)}
    .fil39 {fill:url(#id16)}
    .fil45 {fill:url(#id17)}
    .fil28 {fill:url(#id18)}
    .fil56 {fill:url(#id19)}
    .fil35 {fill:url(#id20)}
    .fil23 {fill:url(#id21)}
    .fil30 {fill:url(#id22)}
    .fil11 {fill:url(#id23)}
    .fil10 {fill:url(#id24)}
    .fil40 {fill:url(#id25)}
    .fil13 {fill:url(#id26)}
    .fil24 {fill:url(#id27)}
    .fil21 {fill:url(#id28)}
    .fil33 {fill:url(#id29)}
    .fil43 {fill:url(#id30)}
    .fil2 {fill:url(#id31)}
    .fil22 {fill:url(#id32)}
    .fil1 {fill:url(#id33)}
    .fil12 {fill:url(#id34)}
    .fil54 {fill:url(#id35)}
    .fil51 {fill:url(#id36)}
    .fil44 {fill:url(#id37)}
    .fil41 {fill:url(#id38)}
    .fil5 {fill:url(#id39)}
    .fil32 {fill:url(#id40)}
    .fil15 {fill:url(#id41)}
    .fil7 {fill:url(#id42);fill-rule:nonzero}
    .fil34 {fill:url(#id43);fill-rule:nonzero}
    .fil38 {fill:url(#id44);fill-rule:nonzero}
    .fil25 {fill:url(#id45);fill-rule:nonzero}
    .fil47 {fill:url(#id46);fill-rule:nonzero}
    .fil52 {fill:url(#id47);fill-rule:nonzero}
    .fil37 {fill:url(#id48);fill-rule:nonzero}
    .fil49 {fill:url(#id49);fill-rule:nonzero}
    .fil50 {fill:url(#id50);fill-rule:nonzero}
    .fil53 {fill:url(#id51);fill-rule:nonzero}
    .fil9 {fill:url(#id52);fill-opacity:0.400000}
   ]]>
  </style>
  <linearGradient id="id0" gradientUnits="userSpaceOnUse" x1="548" y1="1711" x2="847" y2="1711">
   <stop offset="0" style="stop-opacity:1; stop-color:#EB592A"/>
   <stop offset="1" style="stop-opacity:1; stop-color:#FA7D2E"/>
  </linearGradient>
  <linearGradient id="id1" gradientUnits="userSpaceOnUse" x1="2594" y1="3170" x2="2857" y2="3295">
   <stop offset="0" style="stop-opacity:1; stop-color:#E62343"/>
   <stop offset="1" style="stop-opacity:1; stop-color:#FA6883"/>
  </linearGradient>
  <linearGradient id="id2" gradientUnits="userSpaceOnUse" x1="1200" y1="2684" x2="1208" y2="2575">
   <stop offset="0" style="stop-opacity:1; stop-color:#9DBF32"/>
   <stop offset="1" style="stop-opacity:1; stop-color:#B3DB30"/>
  </linearGradient>
  <linearGradient id="id3" gradientUnits="userSpaceOnUse" xlink:href="#id1" x1="50" y1="2165" x2="330" y2="2271">
  </linearGradient>
  <linearGradient id="id4" gradientUnits="userSpaceOnUse" x1="2069" y1="704" x2="2368" y2="690">
   <stop offset="0" style="stop-opacity:1; stop-color:#1877F2"/>
   <stop offset="1" style="stop-opacity:1; stop-color:#43D1BE"/>
  </linearGradient>
  <linearGradient id="id5" gradientUnits="userSpaceOnUse" x1="1177" y1="837" x2="1231" y2="557">
   <stop offset="0" style="stop-opacity:1; stop-color:#FFB829"/>
   <stop offset="1" style="stop-opacity:1; stop-color:#FCD526"/>
  </linearGradient>
  <linearGradient id="id6" gradientUnits="userSpaceOnUse" x1="824" y1="676" x2="570" y2="719">
   <stop offset="0" style="stop-opacity:1; stop-color:#197CF3"/>
   <stop offset="1" style="stop-opacity:1; stop-color:#2FB9F3"/>
  </linearGradient>
  <linearGradient id="id7" gradientUnits="userSpaceOnUse" x1="2241" y1="1342" x2="2210" y2="1222">
   <stop offset="0" style="stop-opacity:1; stop-color:#F69B3C"/>
   <stop offset="1" style="stop-opacity:1; stop-color:#FFC387"/>
  </linearGradient>
  <linearGradient id="id8" gradientUnits="userSpaceOnUse" x1="2066" y1="1333" x2="2114" y2="1265">
   <stop offset="0" style="stop-opacity:1; stop-color:#1879F2"/>
   <stop offset="1" style="stop-opacity:1; stop-color:#25B0FE"/>
  </linearGradient>
  <linearGradient id="id9" gradientUnits="userSpaceOnUse" xlink:href="#id5" x1="2695" y1="337" x2="2755" y2="44">
  </linearGradient>
  <linearGradient id="id10" gradientUnits="userSpaceOnUse" xlink:href="#id5" x1="2701" y1="829" x2="2749" y2="566">
  </linearGradient>
  <linearGradient id="id11" gradientUnits="userSpaceOnUse" xlink:href="#id1" x1="1576" y1="639" x2="1846" y2="755">
  </linearGradient>
  <linearGradient id="id12" gradientUnits="userSpaceOnUse" xlink:href="#id0" x1="2575" y1="2218" x2="2875" y2="2218">
  </linearGradient>
  <linearGradient id="id13" gradientUnits="userSpaceOnUse" xlink:href="#id1" x1="588" y1="3202" x2="806" y2="3263">
  </linearGradient>
  <linearGradient id="id14" gradientUnits="userSpaceOnUse" xlink:href="#id1" x1="2622" y1="1177" x2="2828" y2="1231">
  </linearGradient>
  <linearGradient id="id15" gradientUnits="userSpaceOnUse" xlink:href="#id0" x1="1055" y1="209" x2="1354" y2="209">
  </linearGradient>
  <linearGradient id="id16" gradientUnits="userSpaceOnUse" xlink:href="#id5" x1="1187" y1="2330" x2="1221" y2="2106">
  </linearGradient>
  <linearGradient id="id17" gradientUnits="userSpaceOnUse" xlink:href="#id5" x1="1184" y1="2873" x2="1225" y2="2671">
  </linearGradient>
  <linearGradient id="id18" gradientUnits="userSpaceOnUse" xlink:href="#id1" x1="2153" y1="1099" x2="2292" y2="1159">
  </linearGradient>
  <linearGradient id="id19" gradientUnits="userSpaceOnUse" xlink:href="#id2" x1="1173" y1="3365" x2="1235" y2="3100">
  </linearGradient>
  <linearGradient id="id20" gradientUnits="userSpaceOnUse" xlink:href="#id1" x1="2604" y1="1642" x2="2846" y2="1780">
  </linearGradient>
  <linearGradient id="id21" gradientUnits="userSpaceOnUse" xlink:href="#id0" x1="1132" y1="1187" x2="1351" y2="1187">
  </linearGradient>
  <linearGradient id="id22" gradientUnits="userSpaceOnUse" xlink:href="#id2" x1="160" y1="1858" x2="220" y2="1565">
  </linearGradient>
  <linearGradient id="id23" gradientUnits="userSpaceOnUse" x1="1697" y1="88" x2="1640" y2="320">
   <stop offset="0" style="stop-opacity:1; stop-color:#8CE2D6"/>
   <stop offset="1" style="stop-opacity:1; stop-color:#49D3C0"/>
  </linearGradient>
  <linearGradient id="id24" gradientUnits="userSpaceOnUse" x1="1804" y1="191" x2="1792" y2="291">
   <stop offset="0" style="stop-opacity:1; stop-color:#25B1FE"/>
   <stop offset="1" style="stop-opacity:1; stop-color:#1877F2"/>
  </linearGradient>
  <linearGradient id="id25" gradientUnits="userSpaceOnUse" xlink:href="#id24" x1="1748" y1="2230" x2="1734" y2="2381">
  </linearGradient>
  <linearGradient id="id26" gradientUnits="userSpaceOnUse" xlink:href="#id24" x1="2183" y1="199" x2="2169" y2="316">
  </linearGradient>
  <linearGradient id="id27" gradientUnits="userSpaceOnUse" xlink:href="#id24" x1="1175" y1="1128" x2="1015" y2="1307">
  </linearGradient>
  <linearGradient id="id28" gradientUnits="userSpaceOnUse" xlink:href="#id24" x1="222" y1="1216" x2="204" y2="1367">
  </linearGradient>
  <linearGradient id="id29" gradientUnits="userSpaceOnUse" xlink:href="#id23" x1="1771" y1="1574" x2="1711" y2="1885">
  </linearGradient>
  <linearGradient id="id30" gradientUnits="userSpaceOnUse" xlink:href="#id23" x1="244" y1="2602" x2="196" y2="2880">
  </linearGradient>
  <linearGradient id="id31" gradientUnits="userSpaceOnUse" xlink:href="#id24" x1="2250" y1="3238" x2="2246" y2="3320">
  </linearGradient>
  <linearGradient id="id32" gradientUnits="userSpaceOnUse" xlink:href="#id23" x1="757" y1="1067" x2="697" y2="1378">
  </linearGradient>
  <linearGradient id="id33" gradientUnits="userSpaceOnUse" xlink:href="#id23" x1="1771" y1="3095" x2="1712" y2="3406">
  </linearGradient>
  <linearGradient id="id34" gradientUnits="userSpaceOnUse" xlink:href="#id23" x1="2329" y1="95" x2="2280" y2="298">
  </linearGradient>
  <linearGradient id="id35" gradientUnits="userSpaceOnUse" x1="237" y1="3127" x2="203" y2="3364">
   <stop offset="0" style="stop-opacity:1; stop-color:#25B1FE"/>
   <stop offset="1" style="stop-opacity:1; stop-color:#0B56B8"/>
  </linearGradient>
  <linearGradient id="id36" gradientUnits="userSpaceOnUse" xlink:href="#id24" x1="2307" y1="2802" x2="2301" y2="2874">
  </linearGradient>
  <linearGradient id="id37" gradientUnits="userSpaceOnUse" xlink:href="#id24" x1="731" y1="2737" x2="715" y2="2888">
  </linearGradient>
  <linearGradient id="id38" gradientUnits="userSpaceOnUse" xlink:href="#id24" x1="2110" y1="2181" x2="2090" y2="2255">
  </linearGradient>
  <linearGradient id="id39" gradientUnits="userSpaceOnUse" xlink:href="#id24" x1="757" y1="53" x2="697" y2="364">
  </linearGradient>
  <linearGradient id="id40" gradientUnits="userSpaceOnUse" xlink:href="#id24" x1="1249" y1="1613" x2="1219" y2="1835">
  </linearGradient>
  <linearGradient id="id41" gradientUnits="userSpaceOnUse" xlink:href="#id24" x1="236" y1="594" x2="203" y2="827">
  </linearGradient>
  <linearGradient id="id42" gradientUnits="userSpaceOnUse" x1="41" y1="190" x2="340" y2="190">
   <stop offset="0" style="stop-opacity:1; stop-color:#873CDA"/>
   <stop offset="1" style="stop-opacity:1; stop-color:#D62FA2"/>
  </linearGradient>
  <linearGradient id="id43" gradientUnits="userSpaceOnUse" x1="2263" y1="1611" x2="2173" y2="1811">
   <stop offset="0" style="stop-opacity:1; stop-color:#9AACD6"/>
   <stop offset="1" style="stop-opacity:1; stop-color:#6178AD"/>
  </linearGradient>
  <linearGradient id="id44" gradientUnits="userSpaceOnUse" x1="720" y1="2166" x2="646" y2="2308">
   <stop offset="0" style="stop-opacity:1; stop-color:white"/>
   <stop offset="1" style="stop-opacity:1; stop-color:#C4C4C4"/>
  </linearGradient>
  <linearGradient id="id45" gradientUnits="userSpaceOnUse" xlink:href="#id42" x1="1562" y1="1204" x2="1861" y2="1204">
  </linearGradient>
  <linearGradient id="id46" gradientUnits="userSpaceOnUse" xlink:href="#id43" x1="1787" y1="2613" x2="1635" y2="2837">
  </linearGradient>
  <linearGradient id="id47" gradientUnits="userSpaceOnUse" x1="2623" y1="2744" x2="2716" y2="2836">
   <stop offset="0" style="stop-opacity:1; stop-color:#9EA1A5"/>
   <stop offset="1" style="stop-opacity:1; stop-color:#3E3F40"/>
  </linearGradient>
  <linearGradient id="id48" gradientUnits="userSpaceOnUse" x1="563" y1="2240" x2="668" y2="2343">
   <stop offset="0" style="stop-opacity:1; stop-color:#9EA1A5"/>
   <stop offset="1" style="stop-opacity:1; stop-color:#7A7D82"/>
  </linearGradient>
  <linearGradient id="id49" gradientUnits="userSpaceOnUse" xlink:href="#id48" x1="2090" y1="2746" x2="2190" y2="2844">
  </linearGradient>
  <linearGradient id="id50" gradientUnits="userSpaceOnUse" xlink:href="#id48" x1="2084" y1="2677" x2="2142" y2="2735">
  </linearGradient>
  <linearGradient id="id51" gradientUnits="userSpaceOnUse" xlink:href="#id48" x1="2590" y1="2744" x2="2682" y2="2836">
  </linearGradient>
  <linearGradient id="id52" gradientUnits="userSpaceOnUse" xlink:href="#id0" x1="1055" y1="87" x2="1335" y2="87">
  </linearGradient>
 </defs>
 <g id="Layer_x0020_1">
  <metadata id="CorelCorpID_0Corel-Layer"/>
  <rect class="fil0" x="2535" y="3042" width="380" height="380"/>
  <path class="fil1" d="M1711 3083c83,0 151,68 151,151 0,19 -3,37 -10,54 -20,7 -40,13 -60,13 -89,0 -97,-102 -26,-102 7,0 12,2 18,4 -1,-5 -3,-7 -12,-11 -35,-16 -76,14 -76,53 0,15 3,25 9,36 24,46 82,50 129,41 -2,3 -4,5 -6,8 -28,9 -57,14 -89,0 -45,-19 -59,-55 -59,-102 -2,2 -1,1 -3,4l-6 17c-15,61 29,113 83,131 -4,1 -9,2 -13,3 -6,-2 -14,-4 -24,-11 -52,-33 -80,-86 -55,-146 15,-36 57,-62 99,-62 30,0 23,2 40,4 -2,-2 1,0 -3,-2 -1,-1 -3,-2 -5,-2 -3,-2 -5,-3 -8,-4 -6,-3 -12,-5 -18,-7 -34,-11 -65,-10 -96,6 -41,21 -78,72 -78,122 0,25 3,43 10,60 -27,-27 -44,-65 -44,-106 0,-83 68,-151 151,-151l0 0 0 0zm51 157l11 0 0 43 54 0 0 -43 11 0 -37 -36 -39 36zm28 12l21 0 0 19 -21 0 0 -19z"/>
  <path class="fil2" d="M2344 3289c-15,15 -35,24 -57,24 -9,0 -18,-2 -26,-4 -8,-3 -16,-7 -23,-13 -3,-2 -4,-4 -6,-6l-72 -72 18 -18 71 71c2,2 3,3 4,4 1,1 2,2 4,3 5,3 10,6 15,7 5,2 11,3 17,3 15,0 29,-6 39,-16 10,-10 16,-24 16,-39 0,-15 -6,-29 -16,-39 -10,-10 -24,-16 -39,-16 -5,0 -9,1 -14,2 -3,1 -6,2 -8,3l39 39 -17 18 -32 -32 -27 -27 3 -3c8,-8 17,-14 26,-18 10,-4 20,-6 31,-6 22,0 42,9 57,24 15,15 24,35 24,57 0,22 -9,42 -24,57zm-252 -114c14,-14 34,-23 55,-24l0 0 2 0c9,0 18,2 26,4 8,3 16,7 23,13 3,2 4,4 6,6 24,24 48,48 72,72l-18 18 -71 -71c-2,-2 -3,-3 -4,-4 -1,-1 -2,-2 -4,-3 -5,-3 -10,-6 -15,-7 -5,-2 -11,-3 -17,-3 -15,0 -29,6 -39,16 -10,10 -16,24 -16,39 0,15 6,29 16,39 10,10 24,16 39,16 5,0 9,-1 14,-2 3,-1 6,-2 8,-3l-39 -39 18 -18 31 31 28 28 -3 3c-8,8 -17,14 -26,18 -10,4 -20,6 -31,6 -22,0 -42,-9 -57,-24 -15,-15 -24,-35 -24,-57 0,-22 9,-42 24,-57z"/>
  <g id="_1563554568080">
   <path class="fil3" d="M2846 3202c8,0 16,3 21,9 6,6 9,13 9,21l0 90c0,8 -3,16 -9,21 -6,6 -13,9 -21,9l-90 0c-8,0 -16,-3 -21,-9 -6,-6 -9,-13 -9,-21l0 -33 -23 24c-6,6 -14,9 -22,9 -8,0 -16,-3 -22,-9l-74 -74c-6,-6 -9,-14 -9,-22 0,-8 3,-16 9,-22l74 -74c6,-6 14,-9 22,-9 8,0 16,3 22,9l74 74c2,2 3,4 5,7l0 0 64 0 0 0z"/>
   <path class="fil4" d="M2680 3161c3,0 6,1 8,3 2,2 3,5 3,8 0,3 -1,6 -3,8 -2,2 -5,3 -8,3 -3,0 -6,-1 -8,-3 -2,-2 -3,-5 -3,-8 0,-3 1,-6 3,-8 2,-2 5,-3 8,-3z"/>
   <path class="fil4" d="M2680 3251c3,0 6,1 8,3 2,2 3,5 3,8 0,3 -1,6 -3,8 -2,2 -5,3 -8,3 -3,0 -6,-1 -8,-3 -2,-2 -3,-5 -3,-8 0,-3 1,-6 3,-8 2,-2 5,-3 8,-3z"/>
   <path class="fil4" d="M2635 3206c3,0 6,1 8,3 2,2 3,5 3,8 0,3 -1,6 -3,8 -2,2 -5,3 -8,3 -3,0 -6,-1 -8,-3 -2,-2 -3,-5 -3,-8 0,-3 1,-6 3,-8 2,-2 5,-3 8,-3z"/>
   <path class="fil4" d="M2725 3206c3,0 6,1 8,3 2,2 3,5 3,8 0,3 -1,6 -3,8 -2,2 -5,3 -8,3 -3,0 -6,-1 -8,-3 -2,-2 -3,-5 -3,-8 0,-3 1,-6 3,-8 2,-2 5,-3 8,-3z"/>
   <path class="fil4" d="M2680 3206c3,0 6,1 8,3 2,2 3,5 3,8 0,3 -1,6 -3,8 -2,2 -5,3 -8,3 -3,0 -6,-1 -8,-3 -2,-2 -3,-5 -3,-8 0,-3 1,-6 3,-8 2,-2 5,-3 8,-3z"/>
   <path class="fil4" d="M2800 3266c3,0 6,1 8,3 2,2 3,5 3,8 0,3 -1,6 -3,8 -2,2 -5,3 -8,3 -3,0 -6,-1 -8,-3 -2,-2 -3,-5 -3,-8 0,-3 1,-6 3,-8 2,-2 5,-3 8,-3z"/>
  </g>
  <rect class="fil0" width="380" height="380"/>
  <rect class="fil0" x="507" width="380" height="380"/>
  <rect class="fil0" x="1521" width="380" height="380"/>
  <rect class="fil0" x="2028" width="380" height="380"/>
  <rect class="fil0" x="2535" width="380" height="380"/>
  <rect class="fil0" y="507" width="380" height="380"/>
  <rect class="fil0" x="507" y="507" width="380" height="380"/>
  <rect class="fil0" x="1014" y="507" width="380" height="380"/>
  <rect class="fil0" x="1521" y="507" width="380" height="380"/>
  <rect class="fil0" x="2028" y="507" width="380" height="380"/>
  <rect class="fil0" x="2535" y="507" width="380" height="380"/>
  <rect class="fil0" y="1014" width="380" height="380"/>
  <rect class="fil0" x="507" y="1014" width="380" height="380"/>
  <rect class="fil0" x="1014" y="1014" width="380" height="380"/>
  <rect class="fil0" x="1521" y="1014" width="380" height="380"/>
  <rect class="fil0" x="2028" y="1014" width="380" height="380"/>
  <rect class="fil0" x="2535" y="1014" width="380" height="380"/>
  <rect class="fil0" y="1521" width="380" height="380"/>
  <rect class="fil0" x="507" y="1521" width="380" height="380"/>
  <rect class="fil0" x="1014" y="1521" width="380" height="380"/>
  <rect class="fil0" x="1521" y="1521" width="380" height="380"/>
  <rect class="fil0" x="2028" y="1521" width="380" height="380"/>
  <rect class="fil0" x="2535" y="1521" width="380" height="380"/>
  <rect class="fil0" y="2028" width="380" height="380"/>
  <rect class="fil0" x="507" y="2028" width="380" height="380"/>
  <rect class="fil0" x="1014" y="2028" width="380" height="380"/>
  <rect class="fil0" x="1521" y="2028" width="380" height="380"/>
  <rect class="fil0" x="2028" y="2028" width="380" height="380"/>
  <rect class="fil0" x="2535" y="2028" width="380" height="380"/>
  <rect class="fil0" y="2535" width="380" height="380"/>
  <rect class="fil0" x="507" y="2535" width="380" height="380"/>
  <rect class="fil0" x="1014" y="2535" width="380" height="380"/>
  <rect class="fil0" x="1521" y="2535" width="380" height="380"/>
  <rect class="fil0" x="2028" y="2535" width="380" height="380"/>
  <rect class="fil0" x="2535" y="2535" width="380" height="380"/>
  <rect class="fil0" y="3042" width="380" height="380"/>
  <rect class="fil0" x="507" y="3042" width="380" height="380"/>
  <rect class="fil0" x="1014" y="3042" width="380" height="380"/>
  <rect class="fil0" x="1521" y="3042" width="380" height="380"/>
  <rect class="fil0" x="2028" y="3042" width="380" height="380"/>
  <rect class="fil0" y="3549" width="380" height="380"/>
  <rect class="fil0" x="507" y="3549" width="380" height="380"/>
  <rect class="fil0" x="1014" y="3549" width="380" height="380"/>
  <rect class="fil0" x="1521" y="3549" width="380" height="380"/>
  <rect class="fil0" x="2028" y="3549" width="380" height="380"/>
  <rect class="fil0" x="2535" y="3549" width="380" height="380"/>
  <rect class="fil0" y="4056" width="380" height="380"/>
  <rect class="fil0" x="507" y="4056" width="380" height="380"/>
  <rect class="fil0" x="1014" y="4056" width="380" height="380"/>
  <rect class="fil0" x="1521" y="4056" width="380" height="380"/>
  <rect class="fil0" x="2028" y="4056" width="380" height="380"/>
  <rect class="fil0" x="2535" y="4056" width="380" height="380"/>
  <rect class="fil0" y="4563" width="380" height="380"/>
  <rect class="fil0" x="507" y="4563" width="380" height="380"/>
  <rect class="fil0" x="1014" y="4563" width="380" height="380"/>
  <rect class="fil0" x="1521" y="4563" width="380" height="380"/>
  <rect class="fil0" x="2028" y="4563" width="380" height="380"/>
  <rect class="fil0" x="2535" y="4563" width="380" height="380"/>
  <rect class="fil0" y="5070" width="380" height="380"/>
  <rect class="fil0" x="507" y="5070" width="380" height="380"/>
  <rect class="fil0" x="1014" y="5070" width="380" height="380"/>
  <rect class="fil0" x="1521" y="5070" width="380" height="380"/>
  <rect class="fil0" x="2028" y="5070" width="380" height="380"/>
  <rect class="fil0" x="2535" y="5070" width="380" height="380"/>
  <g id="_1563554515728">
   <circle class="fil5" cx="697" cy="190" r="150"/>
   <path class="fil6" d="M684 122l0 -9c0,-5 4,-9 9,-9l9 0c5,0 9,4 9,9l0 9c9,0 17,3 25,8 5,3 5,10 1,13l-6 6c-3,3 -7,3 -10,1 -3,-2 -7,-3 -11,-3 0,0 0,0 0,0l-24 0c-6,0 -11,6 -11,12 0,6 3,11 8,12l38 12c15,5 26,20 26,37 0,21 -16,38 -36,38l0 9c0,5 -4,9 -9,9l-9 0c-5,0 -9,-4 -9,-9l0 -9c-9,0 -17,-3 -25,-8 -5,-3 -5,-10 -1,-13l6 -6c3,-3 7,-3 10,-1 3,2 7,3 11,3 0,0 0,0 0,0l24 0c6,0 11,-6 11,-12 0,-6 -3,-11 -8,-12l-38 -12c-15,-5 -26,-20 -26,-37 0,-21 16,-38 36,-38z"/>
  </g>
  <path class="fil7" d="M282 57c2,0 4,1 5,3l52 77c2,2 2,5 -1,7l-143 177c-1,1 -3,2 -5,2 -2,0 -4,-1 -5,-2l-143 -177c-2,-2 -2,-5 -1,-7l52 -77c1,-2 3,-3 5,-3l183 0zm-10 25l-30 0 27 50 35 0 -33 -50zm-105 0l-27 50 101 0 -27 -50 -47 0zm-58 0l-33 50 35 0 27 -50 -30 0zm-22 75l62 83 -35 -83 -27 0zm53 0l50 126 50 -126 -101 0zm92 83l62 -83 -27 0 -35 83z"/>
  <rect class="fil0" x="1014" width="380" height="380"/>
  <g id="_1563554517744">
   <path class="fil8" d="M1324 115l-251 0c-10,0 -19,-8 -19,-19l0 187c0,21 17,37 37,37l232 0c16,0 30,-13 30,-28l0 -150c0,-15 -13,-28 -30,-28l0 0zm-26 122c-10,0 -19,-8 -19,-19 0,-10 8,-19 19,-19 10,0 19,8 19,19 0,10 -8,19 -19,19l0 0z"/>
   <path class="fil9" d="M1326 78l-234 0c-2,0 -3,0 -5,0 -13,0 -26,7 -33,19 0,10 8,19 19,19l28 0c-5,0 -9,-4 -9,-9 0,-5 4,-9 9,-9l224 0c5,0 9,-4 9,-9 0,-15 -13,-28 -28,-28l19 19z"/>
  </g>
  <g id="_1563554517904">
   <path class="fil10" d="M1798 188l-31 0c-35,0 -63,28 -63,63l0 16c0,9 7,16 16,16l126 0c9,0 16,-7 16,-16l0 -16c0,-35 -28,-63 -63,-63l0 0zm-16 -10c26,0 47,-21 47,-47 0,-26 -21,-47 -47,-47 -26,0 -47,21 -47,47 0,26 21,47 47,47l0 0z"/>
   <path class="fil11" d="M1669 197l-36 0c-39,0 -71,32 -72,72l0 18c0,10 8,18 18,18l143 0c10,0 18,-8 18,-18l0 -18c0,-39 -32,-71 -72,-72l0 0zm-71 -121l27 13 27 -14 27 14 27 -13 0 44 -22 0 -5 0 -27 0 -27 0 -5 0 -22 0 0 -44zm53 104c29,0 52,-23 54,-51l-107 0c1,29 25,51 54,51l0 0z"/>
  </g>
  <g id="_1563554519664">
   <path class="fil12" d="M2305 189l-31 0c-35,0 -63,28 -63,63l0 16c0,9 7,16 16,16l126 0c9,0 16,-7 16,-16l0 -16c0,-35 -28,-63 -63,-63l0 0zm-16 -10c26,0 47,-21 47,-47 0,-26 -21,-47 -47,-47 -26,0 -47,21 -47,47 0,26 21,47 47,47l0 0z"/>
   <path class="fil13" d="M2158 182c30,0 54,-24 54,-54 0,-30 -24,-54 -54,-54 -30,0 -54,24 -54,54 0,30 24,54 54,54l0 0zm18 17l-36 0c-39,0 -71,32 -72,72l0 18c0,10 8,18 18,18l143 0c10,0 18,-8 18,-18l0 -18c0,-39 -32,-71 -72,-72l0 0z"/>
  </g>
  <path class="fil14" d="M2875 143c0,57 -46,103 -103,103 -7,0 -13,-1 -19,-2l-14 16c-3,3 -6,5 -10,5 0,0 0,0 0,0l-22 0 0 23c0,8 -6,14 -14,14l-23 0 0 23c0,8 -6,14 -14,14l-65 0c-8,0 -14,-6 -14,-14l0 -46c0,-4 1,-7 4,-10l95 -95c-3,-10 -5,-21 -5,-32 0,-57 46,-103 103,-103 57,0 103,46 103,103zm-103 -28c0,15 13,28 28,28 15,0 28,-13 28,-28 0,-15 -13,-28 -28,-28 -15,0 -28,13 -28,28z"/>
  <path class="fil15" d="M331 660c2,-2 6,0 6,3l0 117c0,15 -12,28 -28,28l-239 0c-15,0 -28,-12 -28,-28l0 -117c0,-3 3,-4 6,-3 13,10 30,23 88,65 12,9 33,27 53,27 20,0 41,-19 53,-27 58,-42 75,-55 88,-65zm-141 74c13,0 32,-17 42,-24 76,-55 82,-60 99,-74 3,-3 5,-7 5,-11l0 -11c0,-15 -12,-28 -28,-28l-239 0c-15,0 -28,12 -28,28l0 11c0,4 2,8 5,11 18,14 23,19 99,74 10,7 29,24 42,24z"/>
  <path class="fil16" d="M626 675l-57 84c-2,3 0,6 3,7l112 12 -58 -102 0 0zm-53 54l40 -66 -41 -25c-1,-1 -3,0 -3,2l0 87c0,2 3,3 4,1zm6 58l104 47c3,1 6,-1 6,-4l0 -35 -109 -12c-2,0 -3,3 -1,4zm44 -138l43 -77c2,-4 -2,-8 -6,-6l-81 53c-1,1 -1,3 0,4l44 26zm75 5l59 0 -51 -90c-2,-3 -4,-4 -7,-4 -3,0 -6,1 -7,4l-51 90 59 0zm126 -16l-41 25 40 66c1,2 4,1 4,-1l0 -87c0,-2 -2,-3 -3,-2zm-50 10l44 -26c1,-1 1,-3 0,-4l-81 -53c-4,-2 -8,2 -6,6l43 77zm42 134l-109 12 0 35c0,3 3,5 6,4l104 -47c2,-1 1,-4 -1,-4l0 0zm-46 -108l-58 102 112 -12c3,0 5,-4 3,-7l-57 -84zm-71 -4l-54 0 54 94 54 -94 -54 0z"/>
  <path class="fil17" d="M1188 565l-36 74 -81 12c-15,2 -20,20 -10,30l59 57 -14 81c-3,15 13,26 26,19l73 -38 73 38c13,7 28,-4 26,-19l-14 -81 59 -57c11,-10 5,-28 -10,-30l-81 -12 -36 -74c-7,-13 -25,-13 -32,0z"/>
  <path class="fil18" d="M1861 687c-1,-11 -7,-21 -17,-27l0 -79c0,-5 -4,-17 -17,-17 -4,0 -7,1 -10,4l-44 35c-22,18 -50,28 -78,28l-100 0c-18,0 -33,15 -33,33l0 23 0 13 0 10 0 4c0,18 15,33 33,33l18 0c-1,5 -1,11 -1,17 0,21 5,40 13,58 3,6 9,9 15,9l39 0c14,0 22,-16 13,-26 -12,-16 -16,-41 -13,-61l16 0c28,0 56,10 78,28l44 35c3,2 7,4 10,4 13,0 17,-12 17,-17l0 -79c9,-5 16,-15 17,-27zm-166 0l0 -23c36,0 71,-12 99,-35l17 -14 0 72 0 72 -17 -14c-28,-22 -63,-35 -99,-35l0 -10 0 -13z"/>
  <path class="fil19" d="M2188 712c0,17 13,30 30,30 17,0 30,-13 30,-30 0,-17 -13,-30 -30,-30 -17,0 -30,13 -30,30zm105 0c0,17 13,30 30,30 17,0 30,-13 30,-30 0,-17 -13,-30 -30,-30 -17,0 -30,13 -30,30zm-180 30c17,0 30,-13 30,-30 0,-17 -13,-30 -30,-30 -17,0 -30,13 -30,30 0,17 13,30 30,30zm224 15l-30 0c-17,0 -30,13 -30,30l0 15c0,8 7,15 15,15l60 0c8,0 15,-7 15,-15l0 -15c0,-17 -13,-30 -30,-30zm-105 0l-30 0c-17,0 -30,13 -30,30l0 15c0,8 7,15 15,15l60 0c8,0 15,-7 15,-15l0 -15c0,-17 -13,-30 -30,-30zm-105 0l-30 0c-17,0 -30,13 -30,30l0 15c0,8 7,15 15,15l60 0c8,0 15,-7 15,-15l0 -15c0,-17 -13,-30 -30,-30zm-15 -150l209 0 0 60c12,0 22,4 30,12l0 -78c0,-13 -10,-23 -22,-23l-224 0c-12,0 -22,10 -22,23l0 78c8,-7 18,-12 30,-12l0 -60z"/>
  <path class="fil20" d="M2862 597l-54 0 0 -21c0,-7 -6,-12 -12,-12l-141 0c-7,0 -12,6 -12,12l0 21 -54 0c-7,0 -12,6 -12,12l0 29c0,19 12,38 32,52 16,12 36,19 57,22 16,27 35,38 35,38l0 37 -25 0c-18,0 -33,11 -33,29l0 6c0,3 3,6 6,6l154 0c3,0 6,-3 6,-6l0 -6c0,-18 -15,-29 -33,-29l-25 0 0 -37c0,0 19,-11 35,-38 21,-2 41,-10 57,-22 20,-15 32,-34 32,-52l0 -29c0,-7 -6,-12 -12,-12zm-235 67c-13,-9 -18,-19 -18,-25l0 -8 33 0c1,17 3,32 7,45 -8,-3 -15,-6 -22,-11zm214 -25c0,8 -9,19 -18,25 -6,5 -14,8 -22,11 4,-13 6,-28 7,-45l33 0 0 8 0 0z"/>
  <path class="fil21" d="M190 1193c38,0 69,-31 69,-69 0,-38 -31,-69 -69,-69 -38,0 -69,31 -69,69 0,38 31,69 69,69l0 0zm23 22l-46 0c-51,0 -92,41 -92,92l0 23c0,13 10,23 23,23l185 0c13,0 23,-10 23,-23l0 -23c0,-51 -41,-92 -92,-92l0 0z"/>
  <path class="fil22" d="M809 1055l-224 0c-21,0 -37,17 -37,37l0 168c0,21 17,37 37,37l56 0 0 49c0,6 7,9 11,6l73 -55 84 0c21,0 37,-17 37,-37l0 -168c0,-21 -17,-37 -37,-37zm-46 96l-77 76c-3,3 -7,3 -9,0l-44 -45c-3,-3 -2,-7 0,-9l15 -15c3,-3 7,-2 9,0l25 25 57 -56c3,-3 7,-2 9,0l15 15c2,3 2,7 0,9l0 0z"/>
  <g id="_1563554523184">
   <path class="fil23" d="M1256 1107c-31,0 -57,-20 -97,-20 -10,0 -19,1 -27,3l0 181c12,-3 26,-5 43,-5 31,0 57,20 97,20 28,0 51,-10 72,-24 5,-3 8,-9 8,-15l0 -142c0,-14 -14,-23 -27,-17 -20,9 -45,19 -68,19z"/>
   <path class="fil24" d="M1089 1050c18,0 32,14 32,32 0,10 -5,20 -13,26 0,1 1,3 1,4l0 220c0,10 -8,17 -17,17l-5 0c-10,0 -17,-8 -17,-17l0 -220c0,-2 0,-3 1,-4 -8,-6 -13,-15 -13,-26 0,-18 14,-32 32,-32z"/>
  </g>
  <path class="fil25" d="M1569 1291l136 62c4,2 8,2 12,0l136 -62c10,-4 10,-19 0,-23l-24 -11 -101 46c-11,5 -24,5 -35,0l-101 -46 -24 11c-10,4 -10,19 0,23zm0 -75l136 62c4,2 8,2 12,0l136 -62c10,-4 10,-19 0,-23l-24 -11 -101 46c-11,5 -24,5 -35,0l-101 -46 -24 11c-10,4 -10,19 0,23zm0 -75l136 62c4,2 8,2 12,0l136 -62c10,-4 10,-19 0,-23l-136 -62c-2,-1 -4,-1 -6,-1 -2,0 -4,0 -6,1l-136 62c-10,4 -10,19 0,23z"/>
  <g id="_1563554552368">
   <g>
    <path class="fil26" d="M2146 1246l-25 20 -30 0c-5,0 -9,4 -9,9l0 51c0,5 4,9 9,9l167 0c8,0 15,-3 21,-7l81 -65c8,-6 9,-19 1,-26 -6,-6 -16,-5 -23,0l-49 40c-6,5 -14,7 -21,7l-63 0c-5,0 -9,-4 -9,-9 0,-5 4,-9 9,-9l42 0c9,0 16,-6 18,-14 2,-11 -6,-20 -17,-20 -33,0 -74,-8 -102,14z"/>
    <path class="fil27" d="M2102 1251l-24 0 -1 0c-5,0 -9,5 -9,12l0 73c0,7 4,12 9,12l1 0 24 0 1 0c5,0 9,-5 9,-12l0 -73c0,-7 -4,-12 -9,-12l-1 0z"/>
   </g>
   <path class="fil28" d="M2216 1195c4,4 10,4 14,0l58 -61c17,-18 16,-47 -3,-64 -16,-14 -41,-12 -56,4l-6 6 -6 -6c-15,-16 -40,-18 -56,-4 -19,16 -20,46 -3,64l58 61z"/>
  </g>
  <path class="fil29" d="M2742 1067c-5,-17 -29,-18 -34,0 -27,92 -86,117 -86,182 0,58 46,104 103,104 57,0 103,-47 103,-104 0,-65 -58,-90 -86,-182l0 0zm-17 249c-36,0 -65,-29 -65,-65 0,-5 4,-9 9,-9 5,0 9,4 9,9 0,26 21,47 47,47 5,0 9,4 9,9 0,5 -4,9 -9,9l0 0z"/>
  <path class="fil30" d="M311 1677c1,-4 1,-8 1,-12 0,-34 -30,-62 -65,-58 -6,-26 -30,-45 -58,-45 -28,0 -51,19 -58,45 -35,-3 -65,24 -65,58 0,4 0,8 1,12 -18,10 -29,29 -29,50 0,32 27,59 59,59l72 0 0 33 -18 28c-3,6 1,14 8,14l56 0c7,0 11,-7 8,-14l-18 -28 0 -33 72 0c33,0 59,-26 59,-59 0,-21 -11,-40 -29,-50z"/>
  <path class="fil31" d="M809 1562l-224 0c-21,0 -37,17 -37,37l0 168c0,21 17,37 37,37l56 0 0 49c0,6 7,9 11,6l73 -55 84 0c21,0 37,-17 37,-37l0 -168c0,-21 -17,-37 -37,-37zm-199 44l174 0c9,0 15,7 15,15l0 0c0,9 -7,15 -15,15l-174 0c-9,0 -15,-7 -15,-15l0 0c0,-9 7,-15 15,-15zm0 62l174 0c9,0 15,7 15,15l0 0c0,9 -7,15 -15,15l-174 0c-9,0 -15,-7 -15,-15l0 0c0,-9 7,-15 15,-15zm0 62l174 0c9,0 15,7 15,15l0 0c0,9 -7,15 -15,15l-174 0c-9,0 -15,-7 -15,-15l0 0c0,-9 7,-15 15,-15z"/>
  <path class="fil32" d="M1339 1741l-30 0 0 30 10 0c2,0 4,2 4,4l0 7c0,2 -2,4 -4,4l-230 0c-2,0 -4,-2 -4,-4l0 -7c0,-2 2,-4 4,-4l10 0 0 -30 -30 0c-8,0 -15,7 -15,15l0 45c0,8 7,15 15,15l269 0c8,0 15,-7 15,-15l0 -45c0,-8 -7,-15 -15,-15zm-45 30l0 -149c0,-8 -7,-15 -15,-15l-149 0c-8,0 -15,7 -15,15l0 149 180 0zm-141 -85l12 -12c2,-2 5,-2 7,0l19 19 45 -44c2,-2 5,-2 7,0l12 12c2,2 2,5 0,7l-60 59c-2,2 -5,2 -7,0l-35 -35c-2,-2 -2,-5 0,-7z"/>
  <path class="fil33" d="M1861 1711c0,-22 -14,-41 -33,-48 9,-19 5,-42 -10,-58 -16,-16 -39,-19 -58,-10 -7,-20 -26,-33 -48,-33 -22,0 -41,14 -48,33 -19,-9 -42,-5 -58,10 -16,16 -19,39 -10,58 -20,7 -33,26 -33,48 0,22 14,41 33,48 -9,19 -5,42 10,58 16,16 39,19 58,10 7,19 26,33 48,33 22,0 41,-14 48,-33 19,9 42,5 58,-10 16,-16 19,-39 10,-58 20,-7 33,-26 33,-48l0 0zm-200 -3l12 -12c2,-2 5,-2 7,0l19 19 45 -44c2,-2 5,-2 7,0l12 12c2,2 2,5 0,7l-60 59c-2,2 -5,2 -7,0l-35 -35c-2,-2 -2,-5 0,-7z"/>
  <path class="fil34" d="M2355 1611l-241 0c-7,0 -12,6 -12,12l0 4 -21 0c-7,0 -12,6 -12,12l0 141c0,16 13,29 29,29l245 0c14,0 25,-11 25,-25l0 -162c0,-7 -6,-12 -12,-12zm-258 175c-2,0 -4,-2 -4,-4l0 -129 8 0 0 129c0,2 -2,4 -4,4l0 0zm127 -12l-83 0c-3,0 -6,-3 -6,-6l0 -4c0,-3 3,-6 6,-6l79 0c3,0 6,3 6,6l0 4c0,3 -3,6 -6,6l4 0zm108 0l-83 0c-3,0 -6,-3 -6,-6l0 -4c0,-3 3,-6 6,-6l79 0c3,0 6,3 6,6l0 4c0,3 -3,6 -6,6l4 0zm-108 -50l-83 0c-3,0 -6,-3 -6,-6l0 -4c0,-3 3,-6 6,-6l79 0c3,0 6,3 6,6l0 4c0,3 -3,6 -6,6l4 0zm108 0l-83 0c-3,0 -6,-3 -6,-6l0 -4c0,-3 3,-6 6,-6l79 0c3,0 6,3 6,6l0 4c0,3 -3,6 -6,6l4 0zm0 -50l-191 0c-3,0 -6,-3 -6,-6l0 -21c0,-3 3,-6 6,-6l187 0c3,0 6,3 6,6l0 21c0,3 -3,6 -6,6l4 0z"/>
  <path class="fil35" d="M2750 1611l-150 0c-14,0 -25,11 -25,25l0 150c0,14 11,25 25,25l150 0c14,0 25,-11 25,-25l0 -150c0,-14 -11,-25 -25,-25zm98 20l-57 39 0 82 57 39c11,8 26,0 26,-13l0 -133c0,-13 -15,-21 -26,-13z"/>
  <path class="fil36" d="M190 2069c-83,0 -150,67 -150,150 0,83 67,150 150,150 83,0 150,-67 150,-150 0,-83 -67,-150 -150,-150zm70 164l-106 61c-10,5 -22,-2 -22,-13l0 -125c0,-11 12,-18 22,-13l106 65c10,6 10,20 0,25l0 0z"/>
  <g id="_1563554556944">
   <path class="fil37" d="M819 2125l-73 0 21 -24c7,-7 7,-19 0,-26 -7,-7 -19,-7 -26,0l-43 50 -43 -50c-7,-7 -19,-7 -26,0 -7,7 -7,19 0,26l21 24 -73 0c-15,0 -28,13 -28,28l0 168c0,15 13,28 28,28l9 0 0 19 28 0 12 -19 143 0 12 19 28 0 0 -19 9 0c15,0 28,-13 28,-28l0 -168c0,-15 -13,-28 -28,-28l0 0z"/>
   <path class="fil38" d="M777 2307c0,0 0,5 -98,5 -89,0 -89,-5 -89,-5 0,0 -5,0 -5,-70 0,-70 5,-70 5,-70 0,0 0,-5 89,-5 98,0 98,5 98,5 0,0 5,0 5,70 0,70 -5,70 -5,70z"/>
   <path class="fil6" d="M819 2211c0,4 -3,7 -7,7l-5 0c-4,0 -7,-3 -7,-7l0 -5c0,-4 3,-7 7,-7l5 0c4,0 7,3 7,7l0 5 0 0z"/>
   <path class="fil6" d="M819 2249c0,4 -3,7 -7,7l-5 0c-4,0 -7,-3 -7,-7l0 -5c0,-4 3,-7 7,-7l5 0c4,0 7,3 7,7l0 5 0 0z"/>
  </g>
  <path class="fil39" d="M1340 2106l-5 0 0 12c0,4 -3,7 -7,7l-23 0c-4,0 -7,-3 -7,-7l0 -12 -187 0 0 12c0,4 -3,7 -7,7l-23 0c-4,0 -7,-3 -7,-7l0 -12 -5 0c-8,0 -14,6 -14,14l0 196c0,8 6,14 14,14l5 0 0 -12c0,-4 3,-7 7,-7l23 0c4,0 7,3 7,7l0 12 187 0 0 -12c0,-4 3,-7 7,-7l23 0c4,0 7,3 7,7l0 12 5 0c8,0 14,-6 14,-14l0 -196c0,-8 -6,-14 -14,-14zm-229 180c0,4 -3,7 -7,7l-23 0c-4,0 -7,-3 -7,-7l0 -23c0,-4 3,-7 7,-7l23 0c4,0 7,3 7,7l0 23 0 0zm0 -56c0,4 -3,7 -7,7l-23 0c-4,0 -7,-3 -7,-7l0 -23c0,-4 3,-7 7,-7l23 0c4,0 7,3 7,7l0 23 0 0zm0 -56c0,4 -3,7 -7,7l-23 0c-4,0 -7,-3 -7,-7l0 -23c0,-4 3,-7 7,-7l23 0c4,0 7,3 7,7l0 23 0 0zm224 112c0,4 -3,7 -7,7l-23 0c-4,0 -7,-3 -7,-7l0 -23c0,-4 3,-7 7,-7l23 0c4,0 7,3 7,7l0 23 0 0zm0 -56c0,4 -3,7 -7,7l-23 0c-4,0 -7,-3 -7,-7l0 -23c0,-4 3,-7 7,-7l23 0c4,0 7,3 7,7l0 23 0 0zm0 -56c0,4 -3,7 -7,7l-23 0c-4,0 -7,-3 -7,-7l0 -23c0,-4 3,-7 7,-7l23 0c4,0 7,3 7,7l0 23 0 0z"/>
  <path class="fil40" d="M1697 2204c-8,8 -8,20 0,27 8,8 20,8 27,0 8,-8 8,-20 0,-27 -8,-8 -20,-8 -27,0zm14 -136c-83,0 -150,67 -150,150 0,83 67,150 150,150 83,0 150,-67 150,-150 0,-83 -67,-150 -150,-150zm76 89l-40 87c-2,4 -5,8 -10,10l-87 40c-10,5 -20,-6 -16,-16l40 -87c2,-4 5,-8 10,-10l87 -40c10,-5 20,6 16,16l0 0z"/>
  <path class="fil41" d="M2071 2251l44 0c3,0 5,-2 5,-5l0 -9c0,-3 -2,-5 -5,-5l-23 0c2,-6 28,-11 28,-33 0,-17 -15,-23 -26,-23 -12,0 -20,6 -24,11 -3,3 -2,6 2,9l5 4c3,3 6,1 9,-1 1,-1 3,-2 5,-2 0,0 0,0 0,0 2,0 5,1 5,5 0,12 -30,17 -30,45l0 2c0,1 0,1 0,2l2 0 0 0zm287 -136l-187 0c-5,0 -9,4 -9,9l0 19c0,5 4,9 9,9l187 0c5,0 9,-4 9,-9l0 -19c0,-5 -4,-9 -9,-9l0 0zm-254 188l10 -12c2,-2 3,-5 3,-8 0,0 0,0 0,-1l0 -2c0,-4 -2,-7 -7,-7l-33 0c-3,0 -5,2 -5,5l0 9c0,3 2,5 5,5l13 0c-2,2 -4,5 -6,7l-3 4c-2,3 -3,6 -2,9l1 1c2,3 4,5 7,5l3 0c6,0 9,1 9,5 0,3 -2,5 -8,5 -3,0 -6,-1 -9,-2 -4,-2 -7,-2 -9,2l-3 5c-2,4 -2,7 2,9 5,3 12,6 22,6 20,0 28,-13 28,-26 0,-8 -5,-17 -17,-20l0 0zm254 -103l-187 0c-5,0 -9,4 -9,9l0 19c0,5 4,9 9,9l187 0c5,0 9,-4 9,-9l0 -19c0,-5 -4,-9 -9,-9l0 0zm9 103l-196 0c-5,0 -9,4 -9,9l0 19c0,5 4,9 9,9l187 0c5,0 9,-4 9,-9l0 -19c0,-5 -4,-9 -9,-9l9 0zm-290 -140l37 0c3,0 5,-2 5,-5l0 -9c0,-3 -2,-5 -5,-5l-9 0 0 -51c0,-3 -2,-5 -5,-5l-14 0c-2,0 -3,1 -4,3l-5 9c0,1 0,1 0,2 0,3 2,5 5,5l5 0 0 37 -9 0c-3,0 -5,2 -5,5l0 9c0,3 2,5 5,5l0 0z"/>
  <path class="fil42" d="M2838 2251l-152 0 3 17 139 0c8,0 14,7 12,15l-3 13c10,5 16,15 16,26 0,16 -13,29 -30,29 -15,0 -28,-13 -29,-28 0,-8 3,-16 9,-22l-109 0c5,5 9,13 9,21 0,17 -14,30 -30,29 -15,-1 -27,-13 -28,-27 -1,-11 5,-22 15,-27l-36 -178 -36 0c-7,0 -12,-6 -12,-12l0 -8c0,-7 6,-12 12,-12l53 0c6,0 11,4 12,10l5 23 204 0c8,0 14,7 12,15l-25 108c-1,6 -6,10 -12,10zm-53 -66l-22 0 0 -31c0,-3 -3,-6 -6,-6l-12 0c-3,0 -6,3 -6,6l0 31 -22 0c-6,0 -8,7 -4,11l35 35c2,2 6,2 9,0l35 -35c4,-4 1,-11 -4,-11l0 0z"/>
  <path class="fil43" d="M337 2715l-30 -27 0 -71c0,-5 -4,-8 -8,-8l-33 0c-5,0 -8,4 -8,8l0 27 -53 -46c-8,-7 -20,-7 -28,0l-133 117c-3,3 -4,8 -1,12l11 12c3,3 8,4 12,1l119 -105c3,-3 8,-3 11,0l119 105c3,3 9,3 12,-1l11 -12c3,-3 3,-9 -1,-12l0 0zm-263 39l0 96c0,5 4,8 8,8l216 0c5,0 8,-4 8,-8l0 -96c-3,-3 -23,-20 -116,-102 -94,83 -113,99 -116,102l0 0c0,0 -1,1 0,0z"/>
  <path class="fil44" d="M697 2725c41,0 75,-33 75,-75 0,-41 -33,-75 -75,-75 -41,0 -75,33 -75,75 0,41 33,75 75,75zm56 19l-28 112 -19 -79 19 -33 -56 0 19 33 -19 79 -28 -112c-42,2 -75,36 -75,78l0 24c0,15 13,28 28,28l206 0c15,0 28,-13 28,-28l0 -24c0,-42 -33,-76 -75,-78l0 0z"/>
  <g id="_1563557772208">
   <path class="fil45" d="M1258 2761l-22 22 5 31c1,5 -5,10 -10,7l-27 -14 -27 14c-5,3 -11,-2 -10,-7l5 -31 -22 -22c-4,-4 -2,-11 4,-11l31 -4 14 -28c1,-2 4,-4 6,-4 2,0 5,1 6,4l14 28 31 4c5,1 8,8 4,11l0 0zm-54 -92c-57,0 -103,46 -103,103 0,57 46,103 103,103 57,0 103,-46 103,-103 0,-57 -46,-103 -103,-103z"/>
   <path class="fil46" d="M1344 2576l-65 0c-7,0 -13,3 -16,9l-40 67c25,4 47,15 64,31l65 -93c4,-6 0,-15 -8,-15zm-159 76l-40 -67c-3,-6 -9,-9 -16,-9l-65 0c-8,0 -12,9 -8,15l65 93c17,-16 39,-27 64,-31z"/>
  </g>
  <path class="fil47" d="M1653 2667c18,-18 18,-46 0,-64 -18,-18 -46,-18 -64,0 -18,18 -18,46 0,64 18,18 46,18 64,0zm180 116c-18,-18 -46,-18 -64,0 -18,18 -18,46 0,64 18,18 46,18 64,0 18,-18 18,-46 0,-64zm-1 -163l-16 -16c-9,-9 -23,-9 -32,0l-193 193c-9,9 -9,23 0,32l16 16c9,9 23,9 32,0l193 -193c9,-9 9,-23 0,-32z"/>
  <g id="_1563557773168">
   <path class="fil48" d="M2111 2846c-7,0 -13,-6 -13,-13 0,-7 6,-13 13,-13 7,0 13,6 13,13 0,7 -6,13 -13,13z"/>
   <path class="fil49" d="M2202 2754l-32 -32 -85 85c-14,14 -14,37 0,50 14,14 37,14 50,0l69 -69c-4,-11 -6,-23 -3,-35l0 0zm58 -46c16,0 31,6 42,17l11 11c9,-4 17,-9 24,-16 21,-21 28,-50 21,-76 -1,-5 -8,-7 -11,-3l-42 41 -38 -6 -6 -38 42 -42c4,-4 2,-10 -3,-11 -26,-7 -56,1 -76,21 -16,16 -23,37 -23,58l46 46c5,-1 9,-2 14,-2l0 0z"/>
   <path class="fil50" d="M2241 2729l-59 -59 0 -35 -71 -54 -36 36 54 71 35 0 59 59c6,-7 12,-14 18,-19z"/>
   <path class="fil51" d="M2355 2803l-65 -65c-13,-13 -32,-15 -48,-8l-1 -1c-7,6 -13,12 -18,19l0 0c-8,16 -5,35 8,48l65 65c8,8 21,8 29,0l29 -29c8,-8 8,-21 0,-29l0 0z"/>
  </g>
  <g id="_1563557774416">
   <path class="fil52" d="M2614 2837l17 17c7,7 18,6 24,-1l61 -69 -29 -35 -72 64c-7,6 -8,17 -1,24zm114 -125c15,-13 9,-8 25,-22 -11,-19 -9,-39 8,-56 11,-11 49,-38 51,-40 8,-6 20,6 13,14l-42 49c-1,1 2,3 2,2l50 -41c8,-6 20,5 13,13l-41 50c-1,1 2,3 2,2l49 -42c8,-7 20,5 14,13 -1,2 -28,40 -40,51 -18,18 -38,19 -56,8 -13,15 -9,10 -21,24l-28 -26z"/>
   <path class="fil53" d="M2603 2597l124 115 78 72 31 29c2,2 4,5 5,8 1,6 0,12 -4,16l-17 17c-7,7 -17,6 -24,0 -10,-12 -104,-123 -108,-128 -83,0 -112,-47 -112,-116 0,-14 17,-22 28,-12z"/>
  </g>
  <path class="fil54" d="M333 3185l-35 0 -10 -24c-10,-25 -34,-41 -61,-41l-74 0c-27,0 -51,16 -61,41l-10 24 -35 0c-5,0 -8,4 -7,9l4 14c1,3 4,5 7,5l12 0c-8,7 -13,17 -13,28l0 28c0,9 4,18 9,25l0 32c0,10 8,19 19,19l19 0c10,0 19,-8 19,-19l0 -19 150 0 0 19c0,10 8,19 19,19l19 0c10,0 19,-8 19,-19l0 -32c6,-7 9,-15 9,-25l0 -28c0,-11 -5,-21 -13,-28l12 0c3,0 6,-2 7,-5l4 -14c1,-4 -2,-9 -7,-9l0 0zm-206 -10c4,-11 15,-18 26,-18l74 0c11,0 22,7 26,18l12 29 -150 0 12 -29 0 0zm-30 94c-11,0 -19,-7 -19,-19 0,-11 7,-19 19,-19 11,0 28,17 28,28 0,11 -17,9 -28,9zm187 0c-11,0 -28,2 -28,-9 0,-11 17,-28 28,-28 11,0 19,7 19,19 0,11 -7,19 -19,19l0 0z"/>
  <path class="fil55" d="M697 3083c-61,0 -110,49 -110,110 0,2 0,5 0,7 0,9 2,18 5,27 3,9 6,17 11,24 0,0 3,5 8,12 0,0 0,0 0,0 21,32 76,114 77,115 4,6 12,6 16,0 0,0 0,-1 1,-1 1,-2 83,-124 85,-127 1,-1 1,-2 2,-3 4,-7 8,-15 10,-24 3,-10 4,-20 4,-30 0,-61 -49,-110 -110,-110l0 0zm-88 71c0,0 25,-61 88,-56 0,0 19,0 19,9 0,11 -19,7 -19,7 0,0 -55,-7 -88,40zm91 95c-24,1 -45,-17 -47,-41 -1,-24 17,-45 41,-47 24,-2 45,17 47,41 1,24 -17,45 -41,47l0 0z"/>
  <path class="fil56" d="M1324 3287l0 -178c0,-9 -5,-14 -14,-14l-175 0c-29,0 -51,22 -51,51l0 171c0,29 22,51 51,51l175 0c7,0 14,-5 14,-14l0 -9c0,-3 -2,-7 -5,-10 -2,-9 -2,-33 0,-39 3,-2 5,-5 5,-10zm-111 -157c19,0 34,15 34,34 0,19 -15,34 -34,34 -19,0 -34,-15 -34,-34 0,-19 15,-34 34,-34l0 0zm-60 116c0,-17 16,-31 36,-31l3 0c7,3 14,4 21,4 7,0 15,-1 21,-4l3 0c20,0 36,14 36,31l0 10c0,6 -5,10 -12,10l-96 0c-7,0 -12,-5 -12,-10l0 -10zm135 89l-152 0c-10,0 -17,-7 -17,-17 0,-10 9,-17 17,-17l152 0 0 34z"/>
 </g>
</svg>
